<?xml version="1.0" encoding="iso-8859-1"?>
<!-- Generator: Adobe Illustrator 16.0.0, SVG Export Plug-In . SVG Version: 6.00 Build 0)  -->
<!DOCTYPE svg PUBLIC "-//W3C//DTD SVG 1.0//EN" "http://www.w3.org/TR/2001/REC-SVG-20010904/DTD/svg10.dtd">
<svg version="1.0" id="Layer_1" xmlns="http://www.w3.org/2000/svg" xmlns:xlink="http://www.w3.org/1999/xlink" x="0px" y="0px"
	 width="215px" height="143.5px" viewBox="0 0 215 143.5" style="enable-background:new 0 0 215 143.5;" xml:space="preserve">
<style type="text/css">
<![CDATA[
	.st0{opacity:0.2;fill:#F7941E;}
	.st1{stroke:#000000;stroke-width:0.1703;stroke-miterlimit:10;}
	.st2{fill:#231F20;}
	.st3{opacity:0.05;fill:#EC008C;}
	.st4{fill:#231F20;stroke:#231F20;stroke-width:0.1705;stroke-miterlimit:10;}
]]>
</style>
<g>
	<g>
		<g>
			<path d="M151.009,75.1c1.906,0,1.906-2.957,0-2.957S149.103,75.1,151.009,75.1L151.009,75.1z"/>
		</g>
	</g>
	<path class="st0" d="M67.998,29.099c1.419,8.417-4.881,16.41-10.417,16.41c-5.537,0-13.572-7.977-11.396-16.231
		c1.537-5.828,4.542-13.217,7.505-15.643c0.843-0.689,1.876-0.764,2.876-0.354c2.564,1.049,4.312,2.759,5.897,4.648
		C65.016,20.971,67.12,23.901,67.998,29.099z"/>
	<path class="st0" d="M164.686,35.171c-0.603,8.698-9.398,13.551-14.967,11.74c-5.569-1.812-7.896-10.004-5.197-18.299
		c2.698-8.294,10.638-14.738,16.206-12.928C166.296,17.497,165.3,26.324,164.686,35.171z"/>
	<g>
		<g>
			<path class="st2" d="M74.03,79.238c7.528,0,7.528-11.674,0-11.674S66.502,79.238,74.03,79.238L74.03,79.238z"/>
		</g>
	</g>
	<g>
		<g>
			<path class="st2" d="M140.216,75.873c7.527,0,7.527-11.674,0-11.674S132.688,75.873,140.216,75.873L140.216,75.873z"/>
		</g>
	</g>
	<g>
		<g>
			<path class="st2" d="M65.731,79.518c1.896,0,1.896-2.939,0-2.939S63.835,79.518,65.731,79.518L65.731,79.518z"/>
		</g>
	</g>
	<circle class="st2" cx="74.03" cy="73.383" r="5.926"/>
	<circle class="st2" cx="140.215" cy="70.035" r="5.927"/>
	<circle class="st2" cx="151.009" cy="73.622" r="1.499"/>
	<path class="st4" d="M181.476,66.314c-4.184-6.127-7.916-11.779-10.236-19.026c-3.822-11.931-2.746-19.154-4.321-28.769
		c-2.218-13.519-15.675-4.18-22.806,2.229c-2.08,1.867-12.009,10.566-13.657,10.912c-3.483,0.73-3.866-1.875-7.933-5.185
		c-7.625-6.211-16.854-7.021-26.967-3.613c-7.128,2.402-11.095,3.862-15.567,6.104c-3.493,1.752-4.4,1.599-5.211,1.253
		c-0.943-0.402-1.608-1.366-3.71-4.604c-2.607-4.014-12.04-17.265-17.329-16.622c-9.275,3.296-14.887,41.831-14.887,41.831
		s-5.425,22.973-6.459,27.973c0.69,2.777,6.993,27.598,32.723,42.117c10.58,5.971,25.227,11.875,38.252,14.053
		c12.5,2.09,20.547,2.764,26.266,1.018c10.68-3.258,21.338-8.824,29.512-15.711C165.96,114.078,183.777,100.473,181.476,66.314z
		 M156.344,118.354c-7.704,6.42-18.563,12.807-29.348,15.047c-10.843,2.258-44.258-4.934-66.258-20.01
		c-17.876-12.252-22.444-28.025-25.223-35.104C36.48,73.619,42,53.334,42,53.334s4.4-37.278,13.149-40.34
		c4.992-0.59,13.549,13.32,16.019,17.077c3.703,5.636,3.45,7.336,10.574,3.811c4.218-2.087,7.661-4.529,14.385-6.76
		c9.541-3.165,18.253-2.389,25.466,3.431c3.843,3.103,5.163,5.886,8.451,5.211c1.556-0.319,10.517-8.446,12.474-10.188
		c6.721-5.978,20.084-16.208,22.204-3.567c0.7,4.178,1.164,15.281,3.793,24.28c3.026,10.364,8.326,18.606,10.341,21.264
		C181.097,99.48,162.765,112.576,156.344,118.354z"/>
	<path class="st1" d="M134.165,90.822c-0.057-0.238-0.193-0.17-0.249,0c-2.712,8.371-10.06,12.535-17.824,5.363
		c-2.897,2.182-9.88,11.459-15.701,10.041c-0.892-0.219-2.279-0.43-3.578-2.807c-0.873-1.598-1.584-6.129-2.016-7.092
		c-0.155-0.346-0.48-0.271-0.48-0.076c0.939,4.734,0.202,8.945,4.91,11.123c9.576,4.432,12.977-4.664,17.177-8.408
		C124.228,106.48,135.599,100.229,134.165,90.822z"/>
	<polygon class="st2" points="8.534,78.59 8.458,78.471 40.226,83.045 59.397,92.26 33.267,86.768 	"/>
	<path class="st2" d="M57.92,103.547l-14.227-2.66c-9.958,2.91-27.794,2.367-27.794,2.367l27.936,2.693L57.92,103.547z"/>
	<path class="st2" d="M187.724,79.645c-10.271,5.037-21.77,5.791-21.77,5.791c5.496,2.178,23.631-1.09,23.631-1.09l9.929-5.627
		L187.724,79.645z"/>
	<path class="st2" d="M192.987,62.664c-12.115,8.496-26.808,11.887-26.808,11.887c7.612,1.564,30.304-6.389,30.304-6.389
		l11.531-9.166L192.987,62.664z"/>
	
		<ellipse transform="matrix(0.9997 0.0264 -0.0264 0.9997 2.4162 -1.3894)" class="st3" cx="53.746" cy="90.669" rx="18.577" ry="6.406"/>
	
		<ellipse transform="matrix(0.9948 -0.1017 0.1017 0.9948 -7.8127 17.3374)" class="st3" cx="166.181" cy="85.314" rx="18.577" ry="6.406"/>
</g>
</svg>
