<?xml version="1.0" encoding="iso-8859-1"?>
<!-- Generator: Adobe Illustrator 16.0.0, SVG Export Plug-In . SVG Version: 6.00 Build 0)  -->
<!DOCTYPE svg PUBLIC "-//W3C//DTD SVG 1.1//EN" "http://www.w3.org/Graphics/SVG/1.1/DTD/svg11.dtd">
<svg version="1.1" id="Layer_1" xmlns="http://www.w3.org/2000/svg" xmlns:xlink="http://www.w3.org/1999/xlink" x="0px" y="0px"
	 width="500px" height="500px" viewBox="0 0 500 500" style="enable-background:new 0 0 500 500;" xml:space="preserve">
<g>
	<g>
		<path d="M351.24,252.332c5.012,0,5.012-7.774,0-7.774C346.227,244.558,346.227,252.332,351.24,252.332L351.24,252.332z"/>
	</g>
</g>
<path style="opacity:0.5;fill:#FFFFFF;" d="M152.843,143.885c0,20.256-10.649,36.676-23.785,36.676s-28.947-17.089-23.785-36.676
	c4.653-17.657,11.485-41.287,23.785-36.676C139.997,111.31,152.843,123.63,152.843,143.885z"/>
<path style="opacity:0.5;fill:#FFFFFF;" d="M380.426,160.604c-4.498,20.427-22.961,32.357-36.836,27.844
	c-13.875-4.513-19.877-24.296-13.408-44.187c6.471-19.891,23.514-35.101,37.387-30.587
	C381.443,118.187,385.012,139.776,380.426,160.604z"/>
<g>
	<g>
		<g>
			<g>
				<g>
					<path style="fill:#231F20;" d="M114.918,342.19c0,0,0.408,0.12,1.175,0.345c0.78,0.199,1.874,0.618,3.284,1.13
						c2.789,1.083,6.705,2.801,11.354,4.939c9.297,4.283,21.603,10.109,34.108,15.294c12.489,5.232,25.194,9.701,34.807,12.521
						c4.809,1.406,8.826,2.482,11.654,3.144c1.409,0.345,2.517,0.615,3.271,0.8c0.759,0.162,1.163,0.248,1.163,0.248
						s0.789,0.245,2.267,0.703c1.478,0.465,3.645,1.153,6.433,1.882c5.556,1.553,13.575,3.522,23.333,4.764
						c9.743,1.272,21.262,1.564,33.338-0.323c0.77-0.085,1.503-0.234,2.23-0.397c0.735-0.153,1.473-0.308,2.213-0.462
						c1.492-0.33,2.949-0.544,4.557-1.065c1.577-0.456,3.164-0.914,4.759-1.375l0.299-0.087l0.149-0.043l0.075-0.021
						c0.15-0.051-0.121,0.045-0.067,0.025l0.58-0.202l1.161-0.405c0.775-0.271,1.553-0.541,2.331-0.812
						c1.555-0.552,3.13-1.07,4.687-1.655c1.552-0.601,3.107-1.203,4.666-1.807c3.141-1.161,6.206-2.53,9.301-3.845
						c6.17-2.67,12.214-5.626,18.059-8.738c1.486-0.737,2.893-1.591,4.314-2.406c1.421-0.82,2.834-1.637,4.239-2.448
						c1.434-0.782,2.718-1.708,4.068-2.552c1.336-0.862,2.662-1.718,3.978-2.566c2.611-1.774,5.114-3.709,7.601-5.498l0.463-0.34
						c-0.022,0.021,0.133-0.107-0.036,0.036l0.054-0.047l0.106-0.093l0.214-0.186l0.851-0.74c0.565-0.492,1.127-0.982,1.686-1.47
						c1.08-1.011,2.183-1.979,3.209-2.99c4.149-4.008,7.753-8.123,10.677-12.222c5.899-8.193,8.834-16.279,10.205-22.022
						c0.393-1.433,0.606-2.737,0.823-3.87c0.236-1.129,0.366-2.104,0.46-2.897c0.206-1.581,0.315-2.425,0.315-2.425
						s-0.059,0.849-0.17,2.439c-0.046,0.797-0.117,1.777-0.285,2.926c-0.15,1.149-0.287,2.481-0.596,3.944
						c-1.033,5.858-3.508,14.26-9.059,23.037c-2.747,4.386-6.197,8.838-10.206,13.202c-0.992,1.103-2.057,2.158-3.104,3.262
						c-0.542,0.532-1.086,1.067-1.634,1.606l-0.825,0.81l-0.207,0.203l-0.104,0.102l-0.053,0.051l-0.148,0.125l-0.442,0.367
						c-2.385,1.944-4.732,3.994-7.282,5.963c-10.348,7.942-22.09,15.069-34.384,21.334c-3.082,1.534-6.145,3.124-9.287,4.508
						c-1.562,0.715-3.12,1.428-4.675,2.14c-1.562,0.695-3.146,1.326-4.712,1.989c-0.784,0.327-1.567,0.654-2.349,0.979l-1.171,0.489
						l-0.585,0.243l-0.728,0.259c-1.564,0.555-3.12,1.107-4.668,1.657c-1.486,0.586-3.239,0.999-4.885,1.467
						c-0.834,0.228-1.664,0.455-2.49,0.681c-0.83,0.236-1.655,0.452-2.466,0.595c-13.014,2.852-25.545,3.265-36.086,2.529
						c-10.569-0.705-19.237-2.297-25.229-3.587c-3.015-0.6-5.348-1.188-6.94-1.585c-1.595-0.393-2.445-0.602-2.445-0.602
						s-0.414-0.142-1.191-0.408c-0.768-0.288-1.893-0.712-3.326-1.25c-2.874-1.049-6.923-2.671-11.713-4.722
						c-9.582-4.11-21.979-10.229-33.909-17.005c-11.96-6.733-23.514-14.01-32.206-19.356c-4.349-2.671-8.005-4.828-10.627-6.227
						c-1.323-0.668-2.359-1.217-3.102-1.502C115.309,342.358,114.918,342.19,114.918,342.19z"/>
				</g>
			</g>
		</g>
		<g>
			<g>
				<g>
					<path style="fill:#231F20;" d="M389.536,191.319c-3.998-10.03-6.082-20.775-7.675-31.454
						c-1.607-10.687-2.706-21.436-4.078-31.899c-0.273,0.179-0.547,0.358-0.525,0.441c-1.362-3.534-3.193-6.858-5.617-9.134
						c-2.424-2.3-5.367-3.194-8.568-2.936c-1.599,0.118-3.258,0.513-4.906,1.116c-1.648,0.601-3.293,1.333-4.905,2.233
						c-3.228,1.774-6.347,3.959-9.351,6.353c-3.013,2.384-5.918,4.979-8.771,7.663c-1.378,1.327-2.929,2.755-4.076,4.01
						c-1.302,1.388-2.656,2.89-4.002,4.372c-2.701,2.98-5.432,5.992-8.25,8.98c-2.847,2.996-5.663,5.951-9.057,8.934
						c-0.903,0.691-1.86,1.39-3.001,2.118l-0.939,0.562c-0.374,0.204-0.774,0.408-1.165,0.601c-0.27,0.118-0.543,0.23-0.818,0.337
						c-0.279,0.105-0.497,0.201-1.017,0.333c-0.473,0.117-0.856,0.208-1.416,0.277c-0.829,0.076-1.705,0.035-2.528-0.072
						c0.732,0.017,1.464,0.035,2.197,0.066c-2.572,0.202-5.455,0.342-8.847-0.631c-0.832-0.208-1.672-0.584-2.494-0.968
						c-0.828-0.372-1.549-0.889-2.295-1.366c-1.331-1.002-2.477-2.103-3.271-3.008c-1.675-1.874-2.722-3.227-3.903-4.371
						c-1.154-1.142-2.397-2.093-3.777-2.985l-1.057-0.683l-0.087-0.084c-3.223-3.129-6.895-5.584-11.04-7.2
						c-4.134-1.638-8.718-2.485-13.523-2.795c-9.645-0.599-19.963,0.716-30.357,2.162c0.402-0.264,0.805-0.528,1.267-0.646
						c-5.895,2.206-11.746,4.393-17.45,6.763c-5.691,2.376-11.277,4.923-16.329,7.999l-0.462,0.382
						c-1.684,0.726-3.353,1.458-5.126,2.13c-1.75,0.683-3.631,1.301-5.691,1.784c-1.133,0.177-2.191,0.405-3.531,0.359
						c-0.325-0.007-0.623,0.017-0.967-0.027l-1.045-0.172c-0.347-0.071-0.692-0.117-1.034-0.228c-0.342-0.125-0.683-0.259-1.021-0.4
						c-0.328-0.149-0.691-0.271-0.978-0.46l-0.864-0.571c-0.611-0.385-1.04-0.81-1.479-1.237c-0.217-0.213-0.45-0.43-0.647-0.645
						l-0.521-0.634c-0.342-0.422-0.709-0.856-0.969-1.26l-0.848-1.231l-0.746-1.191c-0.513-0.804-0.942-1.557-1.415-2.336
						c-0.894-1.509-1.786-2.998-2.73-4.523c-1.911-3.081-3.667-6.171-5.479-9.193c-3.611-6.05-7.341-11.997-11.557-17.467
						c-2.113-2.719-4.359-5.317-6.821-7.512c-1.234-1.076-2.529-2.043-3.85-2.741c-1.32-0.699-2.65-1.083-3.738-0.359
						c0.136-0.252,0.272-0.504,0.479-0.552c-1.593,0.576-3.158,1.504-4.599,2.739c-0.371,0.288-0.693,0.663-1.044,0.99
						c-0.336,0.35-0.711,0.648-1.018,1.042c-0.628,0.764-1.314,1.469-1.886,2.306c-2.409,3.216-4.419,6.852-6.214,10.596
						c-3.581,7.517-6.321,15.516-8.766,23.584c-2.433,8.082-4.506,16.291-6.422,24.539c-1.926,8.248-3.59,16.561-5.441,24.839
						l-0.423-0.087l1.106-3.626c-0.228,1.237-0.456,2.475-0.711,3.708c-0.043-0.009-0.087-0.018-0.122-0.025
						c1.472-8.345,2.759-16.728,4.312-25.072c1.544-8.345,3.249-16.671,5.331-24.927c2.099-8.249,4.491-16.459,7.841-24.41
						c1.688-3.967,3.607-7.88,6.105-11.557c0.584-0.939,1.328-1.799,2.007-2.693c0.327-0.455,0.757-0.851,1.135-1.278
						c0.401-0.412,0.757-0.855,1.199-1.24c1.694-1.592,3.701-2.983,6.036-3.924l0.513,0.131c2.33-0.291,4.501,0.34,6.324,1.187
						c1.841,0.863,3.442,1.969,4.933,3.146c2.945,2.388,5.476,5.074,7.853,7.845c4.722,5.563,8.833,11.495,12.789,17.459
						c1.984,2.981,3.884,5.984,5.86,8.854c0.996,1.452,2.002,2.963,2.992,4.464c0.483,0.719,0.973,1.486,1.45,2.16l0.719,1.038
						l0.713,0.935c0.237,0.337,0.472,0.564,0.702,0.826l0.343,0.388c0.112,0.107,0.219,0.182,0.326,0.277
						c0.211,0.188,0.421,0.391,0.598,0.451c0.09,0.051,0.177,0.106,0.261,0.166c0.084,0.066,0.173,0.043,0.252,0.079
						c0.081,0.023,0.157,0.054,0.233,0.092c0.083,0.025,0.193,0.006,0.285,0.021c0.095,0.008,0.189,0.022,0.283,0.042
						c0.099,0.016,0.251-0.023,0.373-0.027c0.461,0.018,1.148-0.171,1.774-0.286c2.781-0.788,5.954-2.307,9.326-3.198
						c-0.268-0.115-0.535-0.229-0.676-0.151c5.503-3.767,11.267-6.748,17.042-9.535c5.782-2.773,11.604-5.308,17.377-7.828
						l0.089-0.039l1.188-0.169c5.144-0.733,10.331-1.532,15.64-2.174c5.307-0.633,10.748-1.122,16.381-1.019
						c5.615,0.104,11.479,0.845,17.168,2.796c5.695,1.912,11.035,5.132,15.153,9.448c-0.257-0.391-0.513-0.781-0.852-1.031
						c2.191,1.237,4.338,2.724,6.23,4.418c1.892,1.669,3.503,3.538,4.686,4.706c0.613,0.638,1.043,0.922,1.387,1.174
						c0.33,0.133,0.508,0.256,0.872,0.293c0.653,0.141,2.02,0.125,3.579-0.1l0.976,5.941c0.099-0.298,0.098-0.601,0.013-0.865
						c-0.036-0.431-0.112-0.958-0.271-1.395c-0.039-0.113-0.082-0.224-0.129-0.332l-0.072-0.166l-0.07-0.244
						c-0.098-0.323-0.206-0.642-0.326-0.955c-0.12-0.312-0.251-0.62-0.393-0.921l-0.222-0.447l-0.116-0.22l-0.058-0.104
						l-0.007,0.003c0.051-0.047,0.095-0.078,0.159-0.117l0.333-0.238c0.522-0.39,1.161-0.902,1.813-1.47
						c2.861-2.081,5.872-4.687,8.808-7.278c2.952-2.618,5.884-5.32,8.847-8.053c1.49-1.371,2.959-2.735,4.545-4.149
						c0.764-0.69,1.775-1.541,2.496-2.11l2.419-1.934c3.255-2.553,6.598-5.043,10.126-7.355c3.52-2.317,7.226-4.466,11.245-6.227
						c2.001-0.888,4.125-1.628,6.334-2.208c2.206-0.579,4.56-0.944,7.01-0.902c2.439,0.033,4.989,0.507,7.318,1.551
						c2.321,1.038,4.404,2.585,5.968,4.401c0.44,0.425,0.748,0.922,1.122,1.381c0.365,0.466,0.716,0.936,1,1.432l0.897,1.467
						l0.75,1.505c0.535,0.995,0.859,2.031,1.287,3.043c0.37,1.021,0.667,2.052,0.998,3.075l0.55,0.294
						c1.374,10.972,1.447,21.764,2.053,32.478C385.449,170.245,386.494,180.955,389.536,191.319z"/>
				</g>
			</g>
		</g>
		<g>
			<g>
				<g>
					<path style="fill:#231F20;" d="M85.789,263.252c0,0-0.344-1.213-0.792-3.067c-0.431-1.852-1.005-4.321-1.579-6.79
						c-1.114-4.934-2.314-9.738-2.314-9.738c0,0,1.069-1.983,2.673-4.958c1.572-2.979,3.605-6.957,5.386-11.017
						c1.774-4.053,3.25-8.205,3.778-11.43c0.282-1.604,0.306-3.001,0.182-3.93c-0.027-0.482-0.155-0.875-0.22-1.135
						c-0.068-0.262-0.104-0.402-0.104-0.402s0.1,0.104,0.286,0.301c0.187,0.201,0.472,0.46,0.766,0.908
						c0.652,0.87,1.367,2.214,1.979,3.951c1.256,3.464,2.067,8.301,2.53,13.094c0.46,4.795,0.631,9.58,0.713,13.146
						c0.049,3.557,0.082,5.928,0.082,5.928c0,0-3.361,3.882-6.736,7.61c-1.672,1.87-3.343,3.74-4.597,5.143
						C86.584,262.272,85.789,263.252,85.789,263.252z"/>
				</g>
			</g>
		</g>
		<g>
			<g>
				<g>
					<path style="fill:#231F20;" d="M409.145,245.447c0,0-0.986-0.423-2.544-1.147c-0.743-0.388-1.607-0.865-2.56-1.397
						c-0.918-0.548-1.877-1.167-2.867-1.801c-0.946-0.667-1.893-1.333-2.78-1.958c-0.864-0.656-1.671-1.268-2.362-1.792
						c-1.352-1.079-2.254-1.797-2.254-1.797s-0.631-2.09-1.429-5.158c-0.812-3.073-1.755-7.11-2.726-11.088
						c-0.966-3.98-2.021-7.918-2.94-10.833c-0.233-0.731-0.448-1.402-0.638-1.996c-0.213-0.593-0.399-1.109-0.552-1.535
						c-0.307-0.851-0.481-1.337-0.481-1.337s0.362,0.368,0.996,1.013c0.644,0.637,1.535,1.559,2.586,2.736
						c2.115,2.327,4.797,5.55,7.387,8.819c2.595,3.266,5.128,6.517,7.054,8.847c1.922,2.343,3.22,3.801,3.219,3.801
						c0,0,0.072,1.049,0.181,2.623c0.072,0.783,0.156,1.696,0.247,2.674c0.125,0.974,0.259,2.013,0.393,3.052
						c0.178,1.013,0.355,2.062,0.557,3.039c0.227,0.95,0.447,1.866,0.658,2.653C408.802,244.414,409.145,245.447,409.145,245.447z"
						/>
				</g>
			</g>
		</g>
		<g>
			<g>
				<path style="fill:none;stroke:#41333A;stroke-width:32.7891;stroke-miterlimit:10;" d="M399.338,274.225"/>
			</g>
		</g>
		<g>
			<g>
				<g>
					<polygon style="fill:#231F20;" points="168.871,240.822 168.019,241.548 166.314,240.822 168.019,240.097 					"/>
				</g>
			</g>
		</g>
		<g>
			<g>
				<path style="fill:#231F20;" d="M166.314,263.84c8.365,0,15.346-6.98,15.346-15.346c0-8.365-6.98-15.346-15.346-15.346
					s-15.346,6.98-15.346,15.346C150.968,256.859,157.949,263.84,166.314,263.84L166.314,263.84z"/>
			</g>
		</g>
		<g>
			<g>
				<path style="fill:#231F20;" d="M306.979,238.263c0,0.854,0,1.707,0,2.559c0,4.055,1.631,7.986,4.495,10.852
					c2.865,2.865,6.798,4.494,10.851,4.494c4.055,0,7.986-1.629,10.852-4.494c2.865-2.866,4.494-6.797,4.494-10.852
					c0-0.852,0-1.705,0-2.559c0-4.053-1.629-7.986-4.494-10.85c-2.865-2.865-6.797-4.495-10.852-4.495
					c-4.053,0-7.985,1.63-10.851,4.495C308.609,230.277,306.979,234.21,306.979,238.263L306.979,238.263z"/>
			</g>
		</g>
		<g>
			<g>
				<path style="fill:#231F20;" d="M140.738,265.207c4.985,0,4.985-7.73,0-7.73S135.753,265.207,140.738,265.207L140.738,265.207z"
					/>
			</g>
		</g>
		<g>
			<g>
				<g>
					<path style="fill:#231F20;" d="M460.436,240.824c0,0-3.451,3.625-6.826,7.324c-1.707,1.848-3.414,3.694-4.695,5.079
						c-1.305,1.381-2.174,2.303-2.174,2.303s-2.199,1.178-5.57,2.85c-3.361,1.68-7.941,3.799-12.645,5.568
						c-4.699,1.791-9.514,3.148-13.168,3.922c-0.916,0.188-1.744,0.385-2.484,0.512c-0.74,0.119-1.387,0.223-1.918,0.309
						c-1.064,0.17-1.672,0.27-1.672,0.27s0.572-0.23,1.572-0.631c0.5-0.199,1.107-0.443,1.803-0.723
						c0.695-0.285,1.449-0.656,2.281-1.031c3.318-1.521,7.6-3.842,11.619-6.51c4.033-2.65,7.854-5.582,10.664-7.877
						c2.812-2.284,4.652-3.875,4.652-3.874c0,0,1.152-0.457,2.883-1.141c1.736-0.707,4.051-1.65,6.365-2.594
						C455.758,242.652,460.436,240.824,460.436,240.824z"/>
				</g>
			</g>
		</g>
		<g>
			<g>
				<g>
					<path style="fill:#231F20;" d="M475.779,281.744c0,0-4.137,2.301-8.275,4.6c-4.125,2.33-8.34,4.543-8.34,4.543
						s-2.311,0.33-5.775,0.826c-3.426,0.553-8.164,1.008-12.799,1.525c-4.643,0.607-9.258,0.754-12.732,0.967
						c-3.471,0.195-5.785,0.326-5.785,0.326s2.221-0.666,5.551-1.664c3.32-1.016,7.818-2.246,12.113-3.895
						c4.332-1.57,8.605-3.029,11.824-4.371c3.209-1.273,5.35-2.121,5.35-2.121s4.701-0.09,9.422-0.326
						C471.055,281.949,475.779,281.744,475.779,281.744z"/>
				</g>
			</g>
		</g>
		<g>
			<g>
				<g>
					<path style="fill:#231F20;" d="M118.56,292.066c0,0-1.829-0.828-4.632-1.863c-2.801-1.043-6.576-2.303-10.378-3.477
						c-7.603-2.354-15.293-4.406-15.293-4.406s-3.403-1.975-8.574-4.859c-5.168-2.887-12.113-6.67-19.119-10.352
						c-7.004-3.686-14.066-7.275-19.419-9.844c-2.676-1.285-4.925-2.316-6.522-2.975c-0.799-0.328-1.435-0.566-1.879-0.682
						c-0.203-0.047-0.441-0.096-0.443,0.006c0.028,0.104,0.093,0.15,0.085,0.15c0.006-0.008-0.059-0.025-0.116-0.145
						c-0.027-0.09,0.098-0.131,0.178-0.133c0.093-0.012,0.197-0.006,0.315,0.002c0.471,0.037,1.147,0.166,1.999,0.355
						c1.704,0.381,4.111,1.018,6.983,1.832c5.745,1.629,13.35,3.973,20.925,6.426c7.576,2.449,15.123,5.016,20.772,7.002
						c5.649,1.982,9.406,3.373,9.406,3.373s6.676,4.576,13.167,9.41c3.248,2.414,6.44,4.904,8.765,6.848
						C117.112,290.674,118.56,292.066,118.56,292.066z"/>
				</g>
			</g>
		</g>
		<g>
			<g>
				<g>
					<path style="fill:#231F20;" d="M110.762,318.094c0,0-1.868-0.23-4.67-0.576c-2.803-0.285-6.52-0.576-10.241-0.697
						c-3.72-0.135-7.434-0.158-10.233-0.135c-2.784,0-4.664,0.051-4.664,0.051s-3.593-0.928-8.983-2.318
						c-5.418-1.381-12.716-3.211-19.942-5.389c-7.236-2.152-14.317-4.787-19.454-7.135c-1.276-0.594-2.447-1.137-3.484-1.617
						c-1.004-0.529-1.881-0.992-2.602-1.373c-1.443-0.762-2.268-1.195-2.268-1.195s0.89,0.277,2.447,0.766
						c0.778,0.242,1.724,0.539,2.808,0.877c1.093,0.281,2.327,0.6,3.672,0.945c5.372,1.35,12.648,2.629,19.974,3.414
						c7.326,0.811,14.708,1.281,20.29,1.658c5.607,0.395,9.345,0.658,9.345,0.658s1.79,0.623,4.482,1.639
						c2.687,0.99,6.268,2.371,9.796,3.854c3.534,1.473,6.994,3.102,9.539,4.371C109.087,317.213,110.762,318.094,110.762,318.094z"
						/>
				</g>
			</g>
		</g>
	</g>
	<g>
		<g>
			<g>
				<path d="M302.47,292.414c0,0,0.138,0.729,0.379,2.007c0.145,1.289,0.372,3.176,0.144,5.466
					c-0.215,2.278-0.796,4.972-2.021,7.671c-1.215,2.695-3.011,5.407-5.31,7.732c-2.311,2.301-5.082,4.253-8.024,5.534
					c-2.938,1.288-6.004,1.937-8.696,2.055c-2.69,0.109-5-0.19-6.554-0.591c-0.796-0.156-1.393-0.36-1.806-0.489
					c-0.413-0.132-0.634-0.202-0.634-0.202c-3.973-1.938-7.195-4.878-9.854-7.942c2.105,0.185,4.212,0.369,6.355,0.605
					c-1.272,0.831-2.611,2.018-3.933,3.341c-1.327,1.327-2.653,2.793-4.017,4.293c-2.736,2.993-5.598,6.184-9.207,8.884
					c-1.804,1.338-3.817,2.547-6.064,3.353c-2.235,0.815-4.682,1.19-7.041,1.045c-2.365-0.136-4.606-0.752-6.655-1.604
					c-2.045-0.872-3.89-1.999-6.125-2.433c0.211-0.224,0.423-0.447,0.5-0.403c-2.667-1.523-4.946-3.747-6.476-6.291
					c-1.555-2.539-2.478-5.282-3.123-7.996c-1.278-5.448-1.51-10.869-3.145-16.043c0.315-0.066,0.631-0.133,1.176-0.2l-0.371,2.596
					l-0.141-2.596l-0.058-1.075l0.319,1.045c1.591,5.209,2.492,10.644,4.314,15.639c0.907,2.486,2.056,4.855,3.609,6.824
					c1.54,1.979,3.517,3.47,5.739,4.422l0.053,0.257c1.706,0.891,3.437,1.687,5.2,2.21c1.764,0.504,3.536,0.757,5.23,0.654
					c3.401-0.177,6.403-1.841,9.013-4.328c2.628-2.474,4.893-5.592,7.237-8.847c1.177-1.633,2.375-3.313,3.719-5.006
					c1.35-1.689,2.829-3.409,4.755-5.032l2.636-2.223l3.299,3.104c2.19,2.062,4.629,3.631,7.161,4.402c0,0,0.119,0.07,0.343,0.203
					c0.225,0.133,0.55,0.349,0.996,0.538c0.867,0.468,2.19,0.947,3.901,1.28c1.709,0.314,3.833,0.37,6.137-0.07
					c2.301-0.437,4.73-1.428,6.973-2.843c2.228-1.437,4.218-3.337,5.765-5.41c1.557-2.073,2.604-4.337,3.258-6.374
					c0.67-2.043,0.849-3.863,0.983-5.139C302.448,293.149,302.47,292.414,302.47,292.414z"/>
			</g>
		</g>
	</g>
</g>
</svg>
